<!-- Generated by IcoMoon.io -->
<svg version="1.1" xmlns="http://www.w3.org/2000/svg" viewBox="0 0 28 28">
<title>message-circle</title>
<g stroke="none" stroke-width="1" fill="currentColor" fill-rule="nonzero">
<path d="M28 13.297v-0.696c0-0.024-0.002-0.053-0.003-0.081-0.191-3.273-1.558-6.245-3.699-8.471-2.243-2.334-5.339-3.853-8.821-4.045-0.023-0.002-0.050-0.003-0.077-0.003h-0.685c-1.967-0.023-4.035 0.434-5.969 1.411-1.712 0.869-3.207 2.083-4.394 3.549-1.851 2.287-2.95 5.187-2.951 8.324-0.019 1.785 0.354 3.654 1.153 5.428l-2.481 7.444c-0.092 0.275-0.101 0.585 0 0.885 0.245 0.733 1.037 1.13 1.771 0.885l7.439-2.48c1.624 0.738 3.478 1.157 5.426 1.152 1.921-0.013 3.799-0.431 5.517-1.212 2.677-1.22 4.956-3.322 6.357-6.125 0.901-1.749 1.421-3.801 1.415-5.966zM25.2 13.305c0.004 1.715-0.409 3.325-1.105 4.675-1.121 2.243-2.915 3.899-5.029 4.861-1.358 0.619-2.849 0.951-4.376 0.96-1.709 0.004-3.32-0.409-4.669-1.105-0.349-0.181-0.739-0.199-1.085-0.084l-5.324 1.775 1.775-5.324c0.123-0.368 0.084-0.752-0.078-1.074-0.773-1.531-1.126-3.155-1.109-4.673 0.002-2.504 0.867-4.788 2.328-6.593 0.939-1.161 2.125-2.124 3.486-2.814 1.529-0.773 3.153-1.126 4.67-1.109h0.638c2.747 0.15 5.185 1.346 6.956 3.188 1.683 1.751 2.761 4.082 2.921 6.654z"></path>
</g>
</svg>
